<?xml version="1.0" encoding="utf-8"?>
<!-- Generator: Adobe Illustrator 25.0.0, SVG Export Plug-In . SVG Version: 6.00 Build 0)  -->
<svg version="1.1" id="Layer_1" xmlns="http://www.w3.org/2000/svg" xmlns:xlink="http://www.w3.org/1999/xlink" x="0px" y="0px"
	 viewBox="0 0 150 30" style="enable-background:new 0 0 150 30;" xml:space="preserve">
<style type="text/css">
	.st0{fill:#ED2826;}
	.st1{fill:url(#SVGID_1_);}
	.st2{fill:url(#SVGID_2_);}
	.st3{fill:#FFFFFF;}
	.st4{fill:#BE5EA4;}
</style>
<g>
	<path class="st0" d="M91.46,7.46H31.98c-1.65,0-2.99,1.31-2.99,2.92v13.18c0,1.61,1.34,2.92,2.99,2.92h59.48
		c1.65,0,2.99-1.31,2.99-2.92V10.38C94.45,8.77,93.11,7.46,91.46,7.46z"/>
	<g>
		<linearGradient id="SVGID_1_" gradientUnits="userSpaceOnUse" x1="10.9548" y1="16.9162" x2="24.9727" y2="16.9162">
			<stop  offset="0" style="stop-color:#BE5EA4"/>
			<stop  offset="0.1021" style="stop-color:#C25B99"/>
			<stop  offset="0.3065" style="stop-color:#CC5482"/>
			<stop  offset="0.5945" style="stop-color:#D9455E"/>
			<stop  offset="0.9521" style="stop-color:#EA2B2A"/>
			<stop  offset="1" style="stop-color:#EE2524"/>
		</linearGradient>
		<path class="st1" d="M23.04,24.1l1.56,2.73H10.96l-0.01-0.01l2.19-3.77L22.47,7l2.5,4.34l-6.94,11.71h3.19
			C21.98,23.05,22.67,23.45,23.04,24.1z"/>
		<linearGradient id="SVGID_2_" gradientUnits="userSpaceOnUse" x1="4.1296" y1="14.994" x2="26.8557" y2="14.994">
			<stop  offset="0" style="stop-color:#BE5EA4"/>
			<stop  offset="1" style="stop-color:#EE2524"/>
		</linearGradient>
		<path class="st2" d="M26.57,8.65l-1.59,2.69L22.47,7l-0.03-0.05h-9.29L8.5,15l4.65,8.05l-2.19,3.77L4.13,15l6.83-11.83h13.66
			l0.03,0.06l1.92,3.32C26.95,7.2,26.95,8,26.57,8.65z"/>
	</g>
	<g>
		<path class="st3" d="M37.84,22.53c-0.1,0.02-0.22,0.03-0.34,0.03c-0.12,0-0.22,0-0.29,0c-1.77,0-3.32-0.64-4.63-1.93
			c-1.31-1.29-1.97-2.82-1.97-4.61c0-1.8,0.66-3.35,1.98-4.65c1.32-1.3,2.86-1.95,4.64-1.95c0.11,0,0.23,0,0.34,0
			c0.1,0,0.18,0,0.22,0v2.49c-0.17-0.03-0.35-0.04-0.52-0.04c-1.12,0-2.1,0.41-2.93,1.22c-0.84,0.81-1.26,1.78-1.26,2.91
			c0,1.13,0.42,2.1,1.26,2.93s1.82,1.24,2.95,1.24c0.19,0,0.38-0.02,0.56-0.05V22.53z"/>
		<path class="st3" d="M46.8,19.59v2.7c-0.81,0.39-1.62,0.59-2.41,0.59c-1.22,0-2.36-0.45-3.41-1.35c-0.65-0.56-1.13-1.15-1.41-1.79
			c-0.29-0.63-0.43-1.39-0.43-2.27c0-1.44,0.52-2.67,1.55-3.69c1.03-1.02,2.27-1.53,3.71-1.53c1.48,0,2.74,0.5,3.8,1.5
			c1.06,1,1.58,2.23,1.58,3.67v5.07h-2.31v-5.13c0-0.81-0.31-1.5-0.92-2.05s-1.34-0.83-2.18-0.83s-1.55,0.29-2.14,0.88
			c-0.59,0.59-0.88,1.3-0.88,2.14c0,0.86,0.29,1.6,0.88,2.22c0.59,0.62,1.31,0.92,2.17,0.92c0.52,0,0.96-0.08,1.33-0.24
			C46.11,20.24,46.46,19.97,46.8,19.59z"/>
		<path class="st3" d="M53.39,25.33h-2.12v-8.17c0-1.32,0.5-2.43,1.49-3.33s2.16-1.36,3.52-1.36c1.34,0,2.49,0.48,3.45,1.43
			c0.95,0.95,1.43,2.1,1.43,3.45c0,0.94-0.18,1.75-0.54,2.42c-0.36,0.67-0.93,1.25-1.72,1.75c-0.86,0.55-1.74,0.83-2.62,0.83
			c-0.74,0-1.5-0.2-2.28-0.59V19.2c0.24,0.31,0.57,0.55,0.98,0.72c0.41,0.17,0.83,0.26,1.28,0.26c0.77,0,1.41-0.23,1.91-0.68
			c0.58-0.51,0.86-1.24,0.86-2.19c0-0.75-0.28-1.39-0.83-1.93c-0.55-0.53-1.21-0.8-1.98-0.8c-0.79,0-1.45,0.27-2,0.81
			c-0.55,0.54-0.83,1.21-0.83,1.99V25.33z"/>
		<path class="st3" d="M62.29,9.41h2.2v2.63h1.52v2.31h-1.52v4.36c0,0.24,0.04,0.44,0.12,0.62c0.08,0.18,0.22,0.35,0.4,0.54
			c0.35,0.35,0.76,0.53,1.23,0.53c0.16,0,0.28,0,0.37,0v2.14c-0.06,0-0.13,0-0.2,0s-0.12,0-0.15,0c-0.39,0-0.78-0.06-1.15-0.18
			c-0.46-0.15-0.97-0.42-1.53-0.8c-0.34-0.24-0.63-0.6-0.88-1.1c-0.27-0.55-0.41-1.11-0.41-1.68V9.41z"/>
		<path class="st3" d="M69.25,12.18c-0.42,0-0.75-0.14-0.98-0.41c-0.24-0.27-0.35-0.59-0.35-0.96c0-0.36,0.12-0.66,0.35-0.92
			s0.56-0.38,0.99-0.38c0.38,0,0.69,0.14,0.93,0.42c0.21,0.25,0.31,0.56,0.31,0.92c0,0.35-0.11,0.66-0.33,0.92
			S69.63,12.18,69.25,12.18z M68.11,12.82h2.23v9.68h-2.23V12.82z"/>
		<path class="st3" d="M76.82,22.53c-1.61,0-2.88-0.53-3.83-1.59c-0.85-0.95-1.27-2.12-1.27-3.52c0-1.41,0.43-2.6,1.3-3.58
			c0.97-1.09,2.27-1.64,3.92-1.64c1.61,0,2.88,0.53,3.83,1.59c0.85,0.95,1.27,2.12,1.27,3.52c0,1.41-0.43,2.6-1.3,3.58
			C79.77,21.98,78.46,22.53,76.82,22.53z M77.04,14.34c-0.95,0-1.71,0.31-2.27,0.95c-0.51,0.57-0.76,1.26-0.76,2.09
			c0,0.8,0.24,1.47,0.72,2.01c0.54,0.6,1.27,0.91,2.2,0.91c0.95,0,1.71-0.32,2.27-0.95c0.51-0.57,0.76-1.26,0.76-2.09
			c0-0.8-0.24-1.47-0.72-2.01C78.7,14.64,77.97,14.34,77.04,14.34z"/>
		<path class="st3" d="M83.04,22.53v-5.82c0-1.27,0.46-2.35,1.37-3.24c0.91-0.9,2.01-1.34,3.29-1.34c1.26,0,2.33,0.45,3.22,1.35
			s1.34,1.98,1.34,3.24v5.81h-2.37v-5.89c0-0.59-0.23-1.1-0.69-1.51c-0.46-0.41-1-0.62-1.62-0.62c-0.59,0-1.11,0.2-1.54,0.61
			c-0.43,0.41-0.65,0.9-0.65,1.49v5.92H83.04z"/>
	</g>
	<g>
		<path class="st4" d="M98.04,9.52h0.93c0.79,0,1.43,0.64,1.43,1.43v9.21h2.48c1.03,0,1.87,0.84,1.87,1.87v0.62h-6.71V9.52z"/>
		<path class="st4" d="M110.77,22.68c-1.61,0-2.88-0.53-3.83-1.59c-0.85-0.95-1.27-2.12-1.27-3.51c0-1.41,0.43-2.6,1.3-3.58
			c0.97-1.09,2.28-1.64,3.92-1.64c1.61,0,2.88,0.53,3.83,1.59c0.85,0.95,1.27,2.12,1.27,3.52c0,1.41-0.43,2.6-1.3,3.58
			C113.72,22.13,112.42,22.68,110.77,22.68z M111,14.49c-0.95,0-1.71,0.31-2.27,0.95c-0.51,0.57-0.76,1.27-0.76,2.09
			c0,0.8,0.24,1.47,0.72,2.01c0.54,0.6,1.28,0.91,2.2,0.91c0.95,0,1.71-0.32,2.27-0.95c0.51-0.57,0.76-1.26,0.76-2.09
			c0-0.8-0.24-1.47-0.72-2.01C112.66,14.79,111.92,14.49,111,14.49z"/>
		<path class="st4" d="M117.09,12.46h1.55c0.7,0,1.35,0.39,1.67,1.02l2.07,4.04l2.16-4.06c0.33-0.61,0.96-1,1.66-1h1.53l-5.37,10.37
			L117.09,12.46z"/>
		<path class="st4" d="M136.93,16.79c-0.19-0.7-0.56-1.25-1.09-1.64s-1.18-0.59-1.92-0.59c-0.82,0-1.54,0.29-2.14,0.88
			c-0.61,0.59-0.91,1.29-0.91,2.09c0,0.14,0,0.25,0.01,0.31c0.1,0.86,0.46,1.55,1.09,2.04c0.56,0.45,1.22,0.67,1.99,0.67
			c0.44,0,0.85-0.08,1.23-0.23c0.07-0.03,0.13-0.06,0.2-0.09c0.55-0.27,1.21-0.16,1.64,0.28l0.64,0.66
			c-0.53,0.54-1.09,0.93-1.68,1.18c-0.51,0.21-1.08,0.33-1.73,0.36c-1.47,0.06-2.88-0.43-3.96-1.44c-1.06-1-1.6-2.23-1.6-3.68
			c0-1.44,0.5-2.67,1.5-3.69c0.93-0.94,2.23-1.5,3.55-1.52c1.48-0.02,2.77,0.51,3.88,1.6c1.08,1.07,1.62,2.32,1.62,3.74
			c0,0.16,0,0.31,0,0.46c-0.03,0.13-0.04,0.23-0.05,0.29h-7.39c-0.16,0-0.26-0.07-0.3-0.2c-0.04-0.13-0.07-0.31-0.07-0.54
			c0-0.1,0-0.17,0-0.21c0-0.11,0-0.2,0-0.26c0-0.17,0.02-0.29,0.05-0.37s0.12-0.12,0.25-0.12H136.93z"/>
		<path class="st4" d="M142.94,22.68l-2.45-0.01v-5.71c0-0.87,0.16-1.63,0.48-2.27c0.32-0.64,0.83-1.19,1.53-1.66
			c0.43-0.29,0.83-0.5,1.21-0.62c0.38-0.13,0.79-0.19,1.23-0.19c0.11,0,0.25,0.01,0.41,0.02s0.34,0.04,0.54,0.07v2.32
			c-0.22-0.06-0.45-0.09-0.68-0.09c-0.45,0-0.89,0.15-1.31,0.46c-0.31,0.22-0.54,0.47-0.7,0.75c-0.16,0.28-0.24,0.6-0.24,0.97V22.68
			z"/>
	</g>
</g>
</svg>
